<svg xmlns="http://www.w3.org/2000/svg" width="32" height="32" viewBox="0 0 32 32">
  <defs>
    <linearGradient id="grad1" x1="0%" y1="0%" x2="100%" y2="100%">
      <stop offset="0%" style="stop-color:#3B82F6;stop-opacity:1" />
      <stop offset="100%" style="stop-color:#1E40AF;stop-opacity:1" />
    </linearGradient>
    <linearGradient id="grad2" x1="0%" y1="0%" x2="100%" y2="100%">
      <stop offset="0%" style="stop-color:#10B981;stop-opacity:1" />
      <stop offset="100%" style="stop-color:#059669;stop-opacity:1" />
    </linearGradient>
  </defs>
  
  <!-- Background circle -->
  <circle cx="16" cy="16" r="15" fill="url(#grad1)" stroke="#1E40AF" stroke-width="1"/>
  
  <!-- Medical cross -->
  <rect x="13" y="8" width="6" height="16" rx="1" fill="white"/>
  <rect x="8" y="13" width="16" height="6" rx="1" fill="white"/>
  
  <!-- AI circuit elements -->
  <circle cx="8" cy="8" r="1.5" fill="url(#grad2)"/>
  <circle cx="24" cy="8" r="1.5" fill="url(#grad2)"/>
  <circle cx="8" cy="24" r="1.5" fill="url(#grad2)"/>
  <circle cx="24" cy="24" r="1.5" fill="url(#grad2)"/>
  
  <!-- Connecting lines -->
  <line x1="9.5" y1="8" x2="12" y2="8" stroke="url(#grad2)" stroke-width="1.5" opacity="0.8"/>
  <line x1="20" y1="8" x2="22.5" y2="8" stroke="url(#grad2)" stroke-width="1.5" opacity="0.8"/>
  <line x1="8" y1="9.5" x2="8" y2="12" stroke="url(#grad2)" stroke-width="1.5" opacity="0.8"/>
  <line x1="24" y1="9.5" x2="24" y2="12" stroke="url(#grad2)" stroke-width="1.5" opacity="0.8"/>
  <line x1="8" y1="20" x2="8" y2="22.5" stroke="url(#grad2)" stroke-width="1.5" opacity="0.8"/>
  <line x1="24" y1="20" x2="24" y2="22.5" stroke="url(#grad2)" stroke-width="1.5" opacity="0.8"/>
  <line x1="9.5" y1="24" x2="12" y2="24" stroke="url(#grad2)" stroke-width="1.5" opacity="0.8"/>
  <line x1="20" y1="24" x2="22.5" y2="24" stroke="url(#grad2)" stroke-width="1.5" opacity="0.8"/>
</svg> 